<svg xmlns="http://www.w3.org/2000/svg" xmlns:xlink="http://www.w3.org/1999/xlink" xmlns:serif="http://www.serif.com/" width="100%" height="100%" viewBox="0 0 3508 2481" xml:space="preserve" style="fill-rule:evenodd;clip-rule:evenodd;stroke-linejoin:round;stroke-miterlimit:2;">    <g transform="matrix(8.34088,-9.55568e-32,3.7136,-8.34088,911.75,1822.16)">        <path d="M0,146.004C-5.774,146.004 -10.456,141.323 -10.456,135.548L-10.456,10.455C-10.456,4.68 -5.774,0 0,0L159.925,0C165.699,0 170.381,4.68 170.381,10.455L170.381,135.548C170.381,141.323 165.699,146.004 159.925,146.004L0,146.004Z" style="fill:rgb(24,137,180);fill-rule:nonzero;"></path>    </g>    <g transform="matrix(4.84505,-4.65274e-32,2.15715,-4.84505,767.527,1417.22)">        <path d="M0,146.004C-5.774,146.004 -10.456,141.323 -10.456,135.548L-10.456,10.455C-10.456,4.68 -5.774,0 0,0L159.925,0C165.699,0 170.381,4.68 170.381,10.455L170.381,135.548C170.381,141.323 165.699,146.004 159.925,146.004L0,146.004Z" style="fill:rgb(24,137,180);fill-rule:nonzero;"></path>    </g>    <g transform="matrix(4.84505,-4.65274e-32,2.15715,-4.84505,1993.82,808.96)">        <path d="M0,58.402C-2.31,58.402 -4.182,56.529 -4.182,54.22L-4.182,4.182C-4.182,1.873 -2.31,0 0,0L63.97,0C66.28,0 68.152,1.873 68.152,4.182L68.152,54.22C68.152,56.529 66.28,58.402 63.97,58.402L0,58.402Z" style="fill:rgb(24,137,180);fill-rule:nonzero;"></path>    </g>    <g transform="matrix(4.84505,-4.65274e-32,2.15715,-4.84505,2020.66,1900.52)">        <path d="M0,58.402C-2.31,58.402 -4.182,56.529 -4.182,54.22L-4.182,4.182C-4.182,1.873 -2.31,0 0,0L63.97,0C66.28,0 68.152,1.873 68.152,4.182L68.152,54.22C68.152,56.529 66.28,58.402 63.97,58.402L0,58.402Z" style="fill:rgb(24,137,180);fill-rule:nonzero;"></path>    </g>    <g transform="matrix(4.84505,-4.65274e-32,2.15715,-4.84505,961.12,1963.64)">        <path d="M0,58.402C-2.31,58.402 -4.182,56.529 -4.182,54.22L-4.182,4.182C-4.182,1.873 -2.31,0 0,0L63.97,0C66.28,0 68.152,1.873 68.152,4.182L68.152,54.22C68.152,56.529 66.28,58.402 63.97,58.402L0,58.402Z" style="fill:rgb(24,137,180);fill-rule:nonzero;"></path>    </g>    <g transform="matrix(4.84505,-4.65274e-32,2.15715,-4.84505,2002.21,1499.32)">        <path d="M0,118.083C-4.67,118.083 -8.456,114.297 -8.456,109.627L-8.456,8.456C-8.456,3.785 -4.67,0 0,0L129.342,0C134.012,0 137.798,3.785 137.798,8.456L137.798,109.627C137.798,114.297 134.012,118.083 129.342,118.083L0,118.083Z" style="fill:rgb(24,137,180);fill-rule:nonzero;"></path>    </g></svg>